<svg xmlns="http://www.w3.org/2000/svg" width="489.901" height="406.567" viewBox="0 0 489.901 406.567"><g id="Gruppe_467" data-name="Gruppe 467" transform="translate(-1330.099 -2919.017)" style="mix-blend-mode: multiply;isolation: isolate"><g id="Gruppe_402" data-name="Gruppe 402" transform="translate(1330.099 2919.018)" style="mix-blend-mode: multiply;isolation: isolate"><path id="Pfad_94" data-name="Pfad 94" d="M.1,152.45l-.1.094,141.778,143.8H282.094L140.315,152.45Z" transform="translate(0 -8.548)" fill="#831f82"></path><path id="Pfad_95" data-name="Pfad 95" d="M141.783,0,.08,143.921H140.348l-.028-.028L282.1,0Z" transform="translate(-0.004 0)" fill="#00b1eb"></path><path id="Pfad_96" data-name="Pfad 96" d="M0,148.351,69.549,218.9l70.644-70.644L69.605,77.67Z" transform="translate(0 -4.355)" fill="#43237a"></path></g><g id="Gruppe_403" data-name="Gruppe 403" transform="translate(1537.916 3037.79)" style="mix-blend-mode: multiply;isolation: isolate"><path id="Pfad_97" data-name="Pfad 97" d="M0,0,141.769,143.9h140.22l.094-.1L140.315,0Z" transform="translate(0 0)" fill="#4dbdc6"></path><path id="Pfad_98" data-name="Pfad 98" d="M141.74,152.42l.029.028L0,296.341H140.315L282.008,152.42Z" transform="translate(0 -8.546)" fill="#00b1eb"></path><path id="Pfad_99" data-name="Pfad 99" d="M150.33,148.244l70.587,70.6,69.6-70.691L220.973,77.61Z" transform="translate(-8.429 -4.352)" fill="#0096ad"></path></g></g></svg>